<svg id="Cyber_Security_Icons" data-name="Cyber Security Icons" xmlns="http://www.w3.org/2000/svg" viewBox="0 0 64 64"><defs><style>.cls-1{fill:#cecece;}.cls-2{fill:none;stroke:#4d4d4d;stroke-linecap:round;stroke-linejoin:round;stroke-width:2px;}</style></defs><circle class="cls-1" cx="32" cy="32" r="13.5"/><polyline class="cls-2" points="10.3 13.15 13.52 10.16 13.52 19.02"/><polyline class="cls-2" points="26.6 13.15 29.82 10.16 29.82 19.02"/><rect class="cls-2" x="18.19" y="10.16" width="4.87" height="8.86" rx="1.62"/><polyline class="cls-2" points="43.05 13.15 46.26 10.16 46.26 19.02"/><polyline class="cls-2" points="50.48 13.15 53.7 10.16 53.7 19.02"/><rect class="cls-2" x="34.63" y="10.16" width="4.87" height="8.86" rx="1.62"/><polyline class="cls-2" points="10.3 47.97 13.52 44.98 13.52 53.84"/><polyline class="cls-2" points="26.6 47.97 29.82 44.98 29.82 53.84"/><rect class="cls-2" x="18.19" y="44.98" width="4.87" height="8.86" rx="1.62"/><polyline class="cls-2" points="43.05 47.97 46.26 44.98 46.26 53.84"/><polyline class="cls-2" points="50.48 47.97 53.7 44.98 53.7 53.84"/><rect class="cls-2" x="34.63" y="44.98" width="4.87" height="8.86" rx="1.62"/><polyline class="cls-2" points="10.3 30.56 13.52 27.57 13.52 36.43"/><polyline class="cls-2" points="19.02 30.56 22.23 27.57 22.23 36.43"/><rect class="cls-2" x="26.6" y="27.57" width="4.87" height="8.86" rx="1.62"/><polyline class="cls-2" points="34.5 30.56 37.72 27.57 37.72 36.43"/><polyline class="cls-2" points="50.48 30.56 53.7 27.57 53.7 36.43"/><rect class="cls-2" x="42.58" y="27.57" width="4.87" height="8.86" rx="1.62"/></svg>