<svg id="Cyber_Security_Icons" data-name="Cyber Security Icons" xmlns="http://www.w3.org/2000/svg" viewBox="0 0 64 64"><defs><style>.cls-1{fill:#cecece;}.cls-2{fill:none;stroke:#4d4d4d;stroke-linecap:round;stroke-linejoin:round;stroke-width:2px;}</style></defs><circle class="cls-1" cx="32" cy="32" r="13.5"/><polygon class="cls-2" points="32 5 26.17 8.22 32 11.48 37.87 8.22 32 5"/><polyline class="cls-2" points="37.87 8.22 37.87 15.75 32 19 26.17 15.75 26.17 8.22"/><line class="cls-2" x1="32" y1="11.48" x2="32" y2="19"/><polygon class="cls-2" points="37.83 28.22 31.96 31.48 26.14 28.22 31.96 25 37.83 28.22"/><polyline class="cls-2" points="37.83 28.22 37.83 31.23 37.83 35.75 37.27 36.06 31.96 39 26.67 36.05 26.14 35.75 26.14 31.25 26.14 28.22"/><polyline class="cls-2" points="31.96 31.48 31.96 33.15 31.96 34.47 31.96 39"/><polygon class="cls-2" points="31.96 45 26.13 48.22 31.96 51.48 37.83 48.22 31.96 45"/><polyline class="cls-2" points="37.83 48.22 37.83 55.75 31.96 59 26.13 55.75 26.13 48.22"/><line class="cls-2" x1="31.96" y1="51.48" x2="31.96" y2="59"/><polygon class="cls-2" points="53.13 35.53 47.3 38.75 53.13 42 59 38.75 53.13 35.53"/><polyline class="cls-2" points="59 38.75 59 46.28 53.13 49.53 47.3 46.28 47.3 38.75"/><line class="cls-2" x1="53.13" y1="42" x2="53.13" y2="49.53"/><polygon class="cls-2" points="53.13 14.24 47.3 17.46 53.13 20.71 59 17.46 53.13 14.24"/><polyline class="cls-2" points="59 17.46 59 24.99 53.13 28.24 47.3 24.99 47.3 17.46"/><line class="cls-2" x1="53.13" y1="20.71" x2="53.13" y2="35.53"/><polygon class="cls-2" points="10.82 35.53 5 38.75 10.82 42 16.7 38.75 10.82 35.53"/><polyline class="cls-2" points="16.7 38.75 16.7 46.28 10.82 49.53 5 46.28 5 38.75"/><line class="cls-2" x1="10.83" y1="42" x2="10.83" y2="49.53"/><polygon class="cls-2" points="10.82 14.24 5 17.46 10.82 20.71 16.7 17.46 10.82 14.24"/><polyline class="cls-2" points="16.7 17.46 16.7 24.99 10.82 28.24 5 24.99 5 17.46"/><line class="cls-2" x1="10.83" y1="20.71" x2="10.83" y2="35.53"/><line class="cls-2" x1="48.19" y1="25.49" x2="37.83" y2="31.23"/><line class="cls-2" x1="26.14" y1="31.25" x2="15.8" y2="25.49"/><line class="cls-2" x1="47.3" y1="20.92" x2="37.87" y2="15.74"/><line class="cls-2" x1="26.17" y1="15.67" x2="16.7" y2="20.91"/><line class="cls-2" x1="47.3" y1="41.57" x2="37.27" y2="36.06"/><line class="cls-2" x1="26.67" y1="36.05" x2="16.7" y2="41.56"/><line class="cls-2" x1="47.62" y1="46.46" x2="37.83" y2="51.88"/><line class="cls-2" x1="26.14" y1="51.91" x2="16.37" y2="46.46"/></svg>