<?xml version="1.0" encoding="utf-8"?>
<!-- Generator: Adobe Illustrator 27.7.0, SVG Export Plug-In . SVG Version: 6.00 Build 0)  -->
<svg version="1.1" id="Cyber_Security_Icons" xmlns="http://www.w3.org/2000/svg" xmlns:xlink="http://www.w3.org/1999/xlink"
	 x="0px" y="0px" viewBox="0 0 64 64" style="enable-background:new 0 0 64 64;" xml:space="preserve">
<style type="text/css">
	.st0{fill:#CECECE;}
	.st1{fill:#4D4D4D;}
</style>
<circle class="st0" cx="27.7" cy="20.1" r="13.5"/>
<g>
	<path class="st1" d="M34.5,13.9c-0.8,0-1.5,0.7-1.5,1.5c0,0,0,0,0,0c0,0.8,0.7,1.5,1.5,1.5H36v2c-7.4,2-12.9,8.8-12.9,16.8
		c0,9.6,7.8,17.4,17.4,17.4S58,45.4,58,35.8c0-8-5.5-14.8-12.8-16.8v-2h1.5c0.8,0,1.5-0.7,1.5-1.5c0-0.8-0.7-1.5-1.5-1.5
		c0,0,0,0,0,0H34.5z M39,17h3v1.5c-0.5,0-1-0.1-1.5-0.1c-0.5,0-1,0-1.5,0.1V17z M13.4,20.3c-0.8,0-1.5,0.7-1.5,1.5
		c0,0.8,0.7,1.5,1.5,1.5c0,0,0,0,0,0h11c0.8,0,1.5-0.7,1.5-1.5c0,0,0,0,0,0c0-0.8-0.7-1.5-1.5-1.5H13.4z M40.6,21.5
		c8,0,14.4,6.4,14.4,14.3c0,7.9-6.4,14.3-14.4,14.3c-8,0-14.4-6.4-14.4-14.3C26.2,27.9,32.6,21.5,40.6,21.5z M40.4,25
		c-0.8,0-1.5,0.7-1.5,1.5c0,0,0,0,0,0v10.7c0,0.8,0.7,1.5,1.5,1.5c0,0,0,0,0,0h6.2c0.8,0,1.5-0.7,1.5-1.5c0,0,0,0,0,0
		c0-0.8-0.7-1.5-1.5-1.5c0,0,0,0,0,0h-4.7v-9.2C41.9,25.6,41.2,25,40.4,25z M9.2,27.3c-0.8,0-1.5,0.7-1.5,1.5c0,0,0,0,0,0
		c0,0.8,0.7,1.5,1.5,1.5h11c0.8,0,1.5-0.7,1.5-1.5c0,0,0,0,0,0c0-0.8-0.7-1.5-1.5-1.5c0,0,0,0,0,0L9.2,27.3z M7.6,34.3
		C6.7,34.3,6,35,6,35.8c0,0,0,0,0,0c0,0.8,0.7,1.5,1.5,1.5c0,0,0,0,0,0h11c0.8,0,1.5-0.7,1.5-1.5c0,0,0,0,0,0c0-0.8-0.7-1.5-1.5-1.5
		c0,0,0,0,0,0H7.6z M9.2,41.3c-0.8,0-1.5,0.7-1.5,1.5c0,0.8,0.7,1.5,1.5,1.5c0,0,0,0,0,0h11c0.8,0,1.5-0.7,1.5-1.5c0,0,0,0,0,0
		c0-0.8-0.7-1.5-1.5-1.5c0,0,0,0,0,0H9.2z M13.4,48.3c-0.8,0-1.5,0.7-1.5,1.5c0,0,0,0,0,0c0,0.8,0.7,1.5,1.5,1.5h11
		c0.8,0,1.5-0.7,1.5-1.5c0-0.8-0.7-1.5-1.5-1.5c0,0,0,0,0,0H13.4z"/>
</g>
</svg>
